<svg xmlns="http://www.w3.org/2000/svg" width="258" height="258"><g fill="none" stroke="#000" stroke-width=".5"><path fill="#fff" d="M257 28.306S247.518 1 233.296 1H24.601C10.379 1 1 28.306 1 28.306v109.227h256z"/><path fill="#4bd4ff" d="M1 233.308S10.482 257 24.704 257h208.695C247.621 257 257 233.308 257 233.308v-94.77H1z"/><path fill="#000" d="M252.991 120.467c-8.786 0-13.385 5.122-17.444 9.64-3.676 4.093-6.85 7.629-13.573 7.629-6.722 0-9.896-3.535-13.572-7.629-4.058-4.519-8.658-9.64-17.444-9.64-8.781 0-13.379 5.122-17.434 9.641-3.673 4.093-6.845 7.628-13.561 7.628-6.72 0-9.893-3.535-13.567-7.628-4.057-4.519-8.655-9.641-17.438-9.641-8.78 0-13.377 5.122-17.433 9.641-3.673 4.093-6.845 7.628-13.56 7.628-6.714 0-9.885-3.534-13.557-7.627-4.055-4.52-8.65-9.642-17.43-9.642s-13.374 5.122-17.429 9.642c-3.672 4.093-6.842 7.627-13.555 7.627-6.714 0-9.885-3.534-13.556-7.627-4.055-4.52-8.65-9.642-17.43-9.642-2.214 0-4.008 3.625-4.008 8.096s1.795 8.095 4.009 8.095c6.713 0 9.884 3.534 13.555 7.626 4.055 4.521 8.65 9.643 17.43 9.643s13.375-5.123 17.43-9.643c3.67-4.092 6.842-7.626 13.555-7.626s9.884 3.534 13.556 7.626c4.055 4.521 8.65 9.643 17.43 9.643s13.377-5.123 17.433-9.643c3.673-4.092 6.845-7.626 13.56-7.626 6.72 0 9.892 3.535 13.567 7.627 4.057 4.52 8.655 9.642 17.438 9.642 8.782 0 13.379-5.123 17.434-9.642 3.673-4.092 6.845-7.627 13.561-7.627 6.723 0 9.897 3.535 13.573 7.629 4.058 4.518 8.658 9.64 17.444 9.64s13.385-5.123 17.444-9.64c3.676-4.093 6.85-7.63 13.573-7.63 1.432 0 2.755-1.543 3.471-4.048.716-2.504.716-5.59 0-8.095-.716-2.505-2.04-4.047-3.472-4.047zm-31.016 69.142c-6.722 0-9.896-3.535-13.572-7.629-4.058-4.519-8.658-9.64-17.444-9.64-8.781 0-13.379 5.122-17.434 9.641-3.673 4.093-6.845 7.628-13.561 7.628-6.72 0-9.892-3.535-13.567-7.628-4.057-4.519-8.655-9.641-17.438-9.641-8.78 0-13.377 5.122-17.433 9.641-3.673 4.093-6.845 7.628-13.56 7.628-6.714 0-9.885-3.534-13.557-7.627-4.055-4.52-8.65-9.642-17.43-9.642s-13.374 5.122-17.429 9.642c-3.672 4.093-6.842 7.627-13.555 7.627-2.214 0-4.009 3.625-4.009 8.096 0 4.47 1.795 8.095 4.009 8.095 8.779 0 13.374-5.123 17.429-9.642 3.671-4.093 6.842-7.627 13.555-7.627 6.714 0 9.885 3.534 13.556 7.627 4.055 4.52 8.65 9.642 17.43 9.642 8.781 0 13.378-5.123 17.434-9.642 3.672-4.093 6.844-7.627 13.56-7.627 6.719 0 9.892 3.535 13.566 7.628 4.057 4.52 8.655 9.641 17.439 9.641 8.78 0 13.378-5.123 17.434-9.641 3.672-4.093 6.844-7.628 13.56-7.628 6.723 0 9.898 3.535 13.574 7.629 4.058 4.518 8.658 9.64 17.443 9.64 2.214 0 4.009-3.624 4.009-8.095s-1.795-8.096-4.009-8.096z"/></g></svg>