<svg height="256" viewBox="0 0 256 256" width="256" xmlns="http://www.w3.org/2000/svg"><g fill="none" stroke="#000" stroke-width=".5" transform="translate(-.00025 21.383)"><path d="m89.5212498 182.0085c-4.7225 0-8.551-3.795438-8.551-8.476049v-131.3812355c0-21.031029 17.261-38.1427155 38.4800002-38.1427155h8.551c4.7225 0 8.551 3.79543809 8.551 8.4760489 0 4.6806108-3.829 8.4760488-8.551 8.4760488h-8.551c-11.787 0-21.3780002 9.5064375-21.3780002 21.1906178v131.3812355c0 4.680611-3.8285 8.476049-8.551 8.476049z" fill="#c7cfe2"/><path d="m157.93025 38.213h-55.5825c-4.7230002 0-8.5510002-3.828-8.5510002-8.551s3.828-8.551 8.5510002-8.551h55.5825zm-4.2755 34.2045h-55.5825002c-4.723 0-8.551-3.828-8.551-8.551s3.828-8.551 8.551-8.551h55.5825002zm0 34.2045h-55.5825002c-4.723 0-8.551-3.828-8.551-8.551s3.828-8.551 8.551-8.551h55.5825002zm0 34.2045h-55.5825002c-4.723 0-8.551-3.828-8.551-8.551s3.828-8.551 8.551-8.551h55.5825002zm-55.5825002 34.2045c-4.723 0-8.551-3.828-8.551-8.551s3.828-8.551 8.551-8.551h55.5825002v17.102z" fill="#afb9d2"/><path d="m157.93025 183.5825c-4.7225 0-8.551-3.829-8.551-8.551v-132.543c0-21.217 17.261-38.48 38.48-38.48h8.551c4.7225 0 8.551 3.829 8.551 8.551s-3.829 8.551-8.551 8.551h-8.551c-11.787 0-21.378 9.5905-21.378 21.378v132.543c0 4.722-3.8285 8.551-8.551 8.551z" fill="#c7cfe2"/><g fill="#000"><path d="m251.99275 166.747c-8.786 0-13.385 2.5365-17.444 4.7735-3.676 2.0265-6.8505 3.7775-13.573 3.7775s-9.897-1.7505-13.573-3.7775c-4.058-2.2375-8.658-4.7735-17.444-4.7735-8.781 0-13.3785 2.5365-17.434 4.774-3.6725 2.0265-6.8445 3.777-13.561 3.777-6.719 0-9.8925-1.7505-13.5665-3.777-4.057-2.2375-8.655-4.774-17.4385-4.774-8.781 0-13.3775 2.5365-17.4335 4.774-3.6725 2.0265-6.8445 3.777-13.5605002 3.777-6.7135 0-9.8845-1.75-13.556-3.7765-4.055-2.2385-8.6505-4.7745-17.43-4.7745s-13.3745 2.5365-17.4295 4.7745c-3.6715 2.0265-6.8425 3.7765-13.5555 3.7765-6.7135 0-9.8845-1.75-13.556-3.7765-4.055-2.2385-8.6505-4.7745-17.42949996-4.7745-2.21383336 0-4.00824984 1.794917-4.00824984 4.00875s1.79491648 4.008388 4.00874984 4.00825c6.71349996 0 9.88449996 1.75 13.55549996 3.7765 4.055 2.2385 8.6505 4.7745 17.43 4.7745s13.375-2.5365 17.4295-4.7745c3.6715-2.0265 6.8425-3.7765 13.5555-3.7765 6.7135 0 9.8845 1.75 13.556 3.7765 4.055 2.2385 8.6505 4.7745 17.43 4.7745 8.7810002 0 13.3775002-2.5365 17.4335002-4.7745 3.6725-2.0265 6.8445-3.7765 13.5605-3.7765 6.719 0 9.892 1.7505 13.5665 3.777 4.057 2.2375 8.6555 4.774 17.4385 4.774 8.7815 0 13.3785-2.5365 17.434-4.774 3.6725-2.0265 6.8445-3.777 13.561-3.777 6.7225 0 9.897 1.7505 13.573 3.7775 4.058 2.2375 8.658 4.7735 17.444 4.7735s13.385-2.5365 17.444-4.7735c3.676-2.0265 6.8505-3.7775 13.573-3.7775 1.432099-.000089 2.755366-.764188 3.471338-2.004466.715972-1.240279.715877-2.768311-.00025-4.008501-.716127-1.240189-2.039489-2.004033-3.471588-2.004033zm-31.016 25.6535c-6.7225 0-9.897-1.7505-13.573-3.7775-4.058-2.2375-8.658-4.7735-17.444-4.7735-8.781 0-13.3785 2.5365-17.434 4.774-3.6725 2.0265-6.8445 3.777-13.561 3.777-6.719 0-9.892-1.7505-13.5665-3.777-4.057-2.2375-8.655-4.774-17.4385-4.774-8.781 0-13.3775 2.5365-17.4335 4.774-3.6725 2.0265-6.8445 3.777-13.5605002 3.777-6.7135 0-9.8845-1.75-13.556-3.7765-4.055-2.2385-8.6505-4.7745-17.43-4.7745s-13.3745 2.5365-17.4295 4.7745c-3.6715 2.0265-6.8425 3.7765-13.5555 3.7765-2.2138334 0-4.0085 1.794667-4.0085 4.0085s1.7946666 4.0085 4.0085 4.0085c8.7795 0 13.3745-2.5365 17.4295-4.7745 3.6715-2.0265 6.8425-3.7765 13.5555-3.7765 6.7135 0 9.8845 1.75 13.556 3.7765 4.055 2.2385 8.6505 4.7745 17.43 4.7745 8.7810002 0 13.3775002-2.5365 17.4335002-4.7745 3.6725-2.0265 6.8445-3.7765 13.5605-3.7765 6.719 0 9.892 1.7505 13.5665 3.777 4.057 2.2385 8.655 4.774 17.4385 4.774 8.781 0 13.3785-2.5365 17.434-4.774 3.6725-2.0265 6.8445-3.777 13.561-3.777 6.7225 0 9.897 1.7505 13.573 3.7775 4.058 2.2375 8.658 4.7735 17.444 4.7735 2.213833 0 4.0085-1.794667 4.0085-4.0085s-1.794667-4.0085-4.0085-4.0085zm-138.1178663-21.162825c2.2138334 0 2.1198661-126.5358416 2.1198661-128.749675 0-19.0075 15.4640002-34.472 34.4720002-34.472h8.551c2.505 0 4.543 2.038 4.543 4.543s-2.038 4.543-4.543 4.543h-12.8265c-2.213834 0-4.0085 1.7946666-4.0085 4.0085s1.794666 4.0085 4.0085 4.0085h40.7115c1.336171-.0002437 2.584443-.6660013 3.329-1.7755 6.4385-9.597 17.1465-15.327 28.644-15.327h8.551c2.505 0 4.543 2.038 4.543 4.543s-2.038 4.543-4.543 4.543h-8.551c-13.9975 0-25.386 11.3885-25.386 25.386v131.831686c0 2.213833 4.503035-.734375 6.716868-.734375 1.475889 0 1.909267-43.699104 1.300132-131.097311 0-9.5775 7.792-17.3695 17.3695-17.3695h8.551c6.9255 0 12.5595-5.634 12.5595-12.5595s-5.634-12.5595-12.5595-12.5595h-8.551c-13.45 0-26.02 6.3545-34.045 17.1025h-14.1035c.56349-1.4482674.851758-2.9889742.85-4.543 0-6.9255-5.634-12.5595-12.5595-12.5595h-8.552c-23.4280002 0-42.4885002 19.0605-42.4885002 42.4885 0 1.0630743-.7517539 125.353428 0 126.105089.0712618.071253 5.7265686 2.644086 5.8971339 2.644086z"/><path d="m153.38775 106.622c0-2.213833-1.794667-4.0085-4.0085-4.0085h-51.3070002c-2.2138334 0-4.0085 1.794667-4.0085 4.0085v17.1025c0 2.213833 1.7946666 4.0085 4.0085 4.0085h51.3070002c2.213833 0 4.0085-1.794667 4.0085-4.0085zm-8.017 13.094h-43.29v-9.0855h43.29zm4.0085 42.221c2.213833 0 4.0085-1.794667 4.0085-4.0085v-17.1025c0-2.213833-1.794667-4.0085-4.0085-4.0085h-51.3070002c-2.2138334 0-4.0085 1.794667-4.0085 4.0085v17.1025c0 2.213833 1.7946666 4.0085 4.0085 4.0085 2.2138332 0 4.0085002-1.794667 4.0085002-4.0085v-13.094h43.29v13.094c0 2.213833 1.794666 4.0085 4.0085 4.0085zm0-93.528h-51.3070002c-2.2138334 0-4.0085 1.7946666-4.0085 4.0085v17.1025c0 2.2138334 1.7946666 4.0085 4.0085 4.0085h51.3070002c2.213833 0 4.0085-1.7946666 4.0085-4.0085v-17.1025c0-2.2138334-1.794667-4.0085-4.0085-4.0085zm-4.0085 17.1025h-43.29v-9.0855h43.29zm4.0085-51.307h-47.0315c-4.5680002 0-8.2840002 3.716-8.2840002 8.284v12.8265c0 2.2138334 1.7946666 4.0085 4.0085 4.0085h51.3070002c2.213833 0 4.0085-1.7946666 4.0085-4.0085v-17.102c0-2.2138334-1.794667-4.0085-4.0085-4.0085zm-4.0085 17.102h-43.29v-8.8185c0-.1475.1195-.267.267-.267h43.023z"/></g></g></svg>